<svg xmlns="http://www.w3.org/2000/svg" width="27.208" height="27.208" viewBox="0 0 27.208 27.208">
  <path id="noun-language-5340867_1_" data-name="noun-language-5340867 (1)" d="M130.261,46.668a13.6,13.6,0,1,0,13.617,13.6,13.6,13.6,0,0,0-13.617-13.6Zm9.428,8.163h-4.013a21.279,21.279,0,0,0-1.877-4.843,10.926,10.926,0,0,1,5.891,4.843Zm-9.414-5.387a19.161,19.161,0,0,1,2.6,5.387h-5.2a19.165,19.165,0,0,1,2.6-5.387Zm-10.53,13.55a10.644,10.644,0,0,1,0-5.442h4.6a19.539,19.539,0,0,0,0,5.442Zm1.116,2.721h4.013a21.28,21.28,0,0,0,1.877,4.843,10.867,10.867,0,0,1-5.891-4.843Zm4.013-10.884h-4.013a10.865,10.865,0,0,1,5.891-4.843,21.271,21.271,0,0,0-1.878,4.843Zm5.4,16.271a19.162,19.162,0,0,1-2.6-5.387h5.2a19.163,19.163,0,0,1-2.6,5.387Zm3.183-8.108h-6.367a17.113,17.113,0,0,1,0-5.442h6.367a17.112,17.112,0,0,1,0,5.442Zm.34,7.564a21.28,21.28,0,0,0,1.877-4.843h4.013a10.923,10.923,0,0,1-5.891,4.843Zm2.408-7.564a19.537,19.537,0,0,0,0-5.442h4.6a10.641,10.641,0,0,1,0,5.442Z" transform="translate(-116.67 -46.668)" fill="#bfbfbf"/>
</svg>
