<svg xmlns="http://www.w3.org/2000/svg" width="29.889" height="29.835" viewBox="0 0 29.889 29.835">
  <g id="noun-help-3340669" transform="translate(-68.961 -71.491)">
    <path id="Path_6311" data-name="Path 6311" d="M77.3,23.259a21.443,21.443,0,0,0,2.092.529v.3c0,1.42,0,2.837.015,4.256a2.342,2.342,0,0,0,.239,1.031,1.841,1.841,0,0,0,3.019.3c1.644-1.772,3.315-3.548,4.95-5.35a1.438,1.438,0,0,1,1.229-.544,10.365,10.365,0,0,0,7.473-2.642,9.77,9.77,0,0,0,3.419-6.426h0a37.978,37.978,0,0,0,.084-4.409,8.646,8.646,0,0,0-.8-3.47A10.133,10.133,0,0,0,89.392.524C87.368.465,85.348.5,83.33.518a28.756,28.756,0,0,0-4.1.134,10.2,10.2,0,0,0-8.7,7.443,14.667,14.667,0,0,0-.3,6.875A10.181,10.181,0,0,0,77.3,23.259Zm6.354-17.9h0a5.865,5.865,0,0,1,3.554.329,3.823,3.823,0,0,1,2.155,2.254,2.99,2.99,0,0,1-.466,2.989,10.755,10.755,0,0,1-1.626,1.587c-.188.161-.368.338-.559.5a1.276,1.276,0,0,0-.463,1.031c0,.43-.027.861-.039,1.291h0a.344.344,0,0,1-.383.38H83.8a.3.3,0,0,1-.341-.323,10.709,10.709,0,0,1,.206-2.669,2.419,2.419,0,0,1,.643-1.136c.281-.3.6-.577.9-.852s.669-.6,1.013-.87a1.181,1.181,0,0,0-.254-2.009h0a1.973,1.973,0,0,0-2.774.98,4.958,4.958,0,0,0-.17.529c-.066.248-.176.335-.433.3l-2.009-.23A.35.35,0,0,1,80.248,9a4.113,4.113,0,0,1,3.407-3.65Zm-.191,13.391h0a1.417,1.417,0,1,1,.406,1,1.411,1.411,0,0,1-.406-1Z" transform="translate(-1 71)" fill="#371c52"/>
  </g>
</svg>
